<?xml version="1.0" standalone="no"?>
<!DOCTYPE svg PUBLIC "-//W3C//DTD SVG 20010904//EN"
 "http://www.w3.org/TR/2001/REC-SVG-20010904/DTD/svg10.dtd">
<svg version="1.0" xmlns="http://www.w3.org/2000/svg"
 width="1280.000000pt" height="1280.000000pt" viewBox="0 0 1280.000000 1280.000000"
 preserveAspectRatio="xMidYMid meet">
<metadata>
Created by potrace 1.14, written by Peter Selinger 2001-2017
</metadata>
<g transform="translate(0.000000,1280.000000) scale(0.100000,-0.100000)"
fill="#000000" stroke="none">
<path d="M9246 9122 c-3 -2 -26 -5 -53 -7 -26 -2 -48 -4 -48 -5 0 -1 -7 -3
-16 -5 -94 -18 -216 -51 -269 -72 -8 -4 -17 -7 -20 -8 -3 -1 -23 -10 -45 -20
-22 -10 -44 -19 -50 -21 -5 -1 -35 -16 -65 -34 -30 -18 -65 -36 -77 -41 -13
-5 -23 -13 -23 -18 0 -5 -8 -11 -17 -15 -21 -6 -51 -25 -71 -44 -8 -7 -30 -24
-50 -39 -56 -42 -192 -181 -242 -248 -25 -33 -50 -66 -57 -73 -6 -6 -15 -21
-18 -32 -3 -11 -11 -20 -16 -20 -5 0 -9 -4 -9 -9 0 -5 -18 -39 -40 -77 -21
-37 -37 -71 -35 -74 3 -4 -2 -13 -10 -20 -8 -7 -15 -16 -15 -21 0 -4 -5 -20
-12 -36 -6 -15 -12 -30 -13 -33 -1 -3 -4 -12 -8 -20 -3 -8 -8 -27 -11 -42 -7
-31 -27 -36 -46 -13 -7 8 -16 15 -21 15 -5 0 -26 11 -47 24 -20 12 -41 24 -47
26 -26 7 -42 15 -67 32 -16 11 -28 16 -28 11 0 -4 -4 -3 -8 2 -8 12 -153 71
-164 67 -5 -1 -8 2 -8 6 0 5 -6 9 -12 9 -7 0 -43 10 -81 23 -37 12 -75 23 -85
25 -9 2 -18 4 -19 5 -2 2 -6 3 -10 4 -9 2 -79 16 -108 22 -11 2 -31 6 -45 9
-96 19 -346 26 -435 12 -80 -12 -141 -26 -170 -37 -16 -7 -37 -13 -45 -15 -29
-6 -125 -53 -163 -79 -21 -14 -41 -26 -44 -26 -4 0 -39 -33 -77 -74 -110 -115
-172 -259 -177 -407 l-2 -56 -101 0 c-84 -1 -171 -7 -171 -13 0 -1 -9 -3 -20
-5 -48 -9 -162 -50 -187 -67 -14 -10 -29 -18 -33 -18 -19 0 -140 -94 -204
-159 -41 -42 -71 -71 -68 -64 15 25 7 348 -8 374 -2 3 -7 21 -10 40 -3 19 -16
66 -27 104 -12 39 -21 73 -20 78 1 4 -2 7 -8 7 -5 0 -7 7 -4 15 4 8 1 15 -5
15 -6 0 -11 8 -11 18 0 18 -84 178 -113 217 -4 5 -25 34 -47 64 -208 285 -562
484 -914 516 -38 3 -73 8 -78 11 -4 3 -8 0 -8 -6 0 -7 -6 -8 -17 -2 -41 19
-244 -6 -413 -52 -43 -12 -159 -60 -213 -88 -67 -35 -178 -104 -187 -116 -3
-4 -21 -19 -42 -34 -44 -34 -154 -142 -188 -187 -14 -18 -30 -38 -35 -44 -35
-40 -121 -186 -117 -199 1 -5 -2 -8 -6 -8 -5 0 -21 -33 -36 -72 -15 -40 -32
-82 -36 -93 -15 -35 -29 -98 -24 -107 3 -4 1 -8 -4 -8 -5 0 -9 -6 -9 -12 0 -7
-4 -26 -7 -43 -25 -114 -26 -368 -2 -480 16 -79 42 -167 66 -230 13 -34 93
-200 99 -205 3 -3 12 -17 20 -32 8 -16 18 -28 23 -28 4 0 8 -5 8 -11 0 -10 47
-74 85 -115 11 -11 29 -32 41 -45 39 -45 184 -169 198 -169 4 0 19 -11 33 -24
15 -14 30 -23 35 -20 4 3 8 1 8 -5 0 -5 10 -13 23 -17 12 -3 34 -15 49 -25 14
-11 33 -19 42 -19 9 0 16 -4 16 -9 0 -5 -111 -9 -247 -9 -247 0 -309 -5 -328
-23 -5 -5 -17 -9 -27 -9 -10 0 -18 -4 -18 -10 0 -5 -5 -10 -12 -10 -22 0 -98
-95 -115 -145 -16 -45 -18 -108 -18 -655 -1 -588 -1 -607 20 -663 24 -69 83
-134 151 -168 l49 -24 3525 0 3525 0 48 23 c59 30 119 90 148 150 l23 47 0
615 c0 338 -2 626 -5 640 -2 14 -9 32 -14 40 -5 8 -10 21 -11 29 -3 13 -28 45
-72 90 l-24 23 82 44 c77 41 184 111 221 144 9 8 27 23 40 33 42 31 170 161
187 190 9 15 19 27 23 27 3 0 28 33 55 73 26 39 53 75 58 79 6 4 7 8 2 8 -5 0
-3 8 5 18 22 25 79 140 79 157 0 8 4 15 9 15 5 0 11 10 14 23 3 12 21 73 41
135 19 63 37 132 40 155 3 23 9 53 12 67 8 33 13 352 6 364 -3 5 -7 23 -8 40
-5 65 -16 131 -22 136 -4 3 -8 16 -10 30 -3 35 -62 211 -79 237 -8 12 -15 26
-15 30 -3 24 -12 43 -21 43 -6 0 -8 3 -4 6 5 5 -57 121 -72 134 -3 3 -12 17
-20 33 -8 15 -18 27 -23 27 -4 0 -8 7 -8 15 0 8 -4 15 -8 15 -4 0 -15 12 -24
28 -29 48 -246 262 -267 262 -5 0 -11 4 -13 9 -1 5 -41 33 -88 64 -188 122
-386 196 -625 233 -38 6 -334 12 -339 6z m-4152 -2347 c13 -122 18 -151 38
-214 23 -72 81 -197 104 -222 8 -8 14 -20 14 -26 0 -6 6 -13 13 -16 6 -2 -166
-4 -383 -4 -217 0 -389 2 -383 4 7 3 15 4 19 3 4 -1 10 2 13 7 3 4 24 17 46
28 63 31 216 136 255 175 3 3 22 20 43 38 21 17 35 32 33 32 -3 0 7 13 22 28
15 15 41 45 57 66 17 22 36 45 43 52 6 7 12 17 12 23 0 6 4 11 8 11 5 0 14 16
22 35 7 19 15 34 16 32 1 -1 5 -25 8 -52z m1725 -265 c6 0 11 -4 11 -10 0 -5
6 -10 13 -10 7 0 23 -9 35 -20 12 -12 22 -18 22 -14 0 4 11 -5 25 -20 13 -14
28 -26 34 -26 8 0 220 -106 228 -114 2 -2 -127 -4 -287 -3 -251 0 -318 4 -282
19 14 5 77 119 102 185 l24 62 33 -25 c17 -13 36 -24 42 -24z m1840 -217 c2
-1 -17 -2 -43 -1 -48 1 -58 10 -29 26 15 9 33 3 72 -25z"/>
</g>
</svg>
